<svg xmlns="http://www.w3.org/2000/svg" width="32" height="32"><title/><g><title>background</title><rect id="canvas_background" width="582" height="402" x="-1" y="-1" fill="none"/></g><g><title fill="#fff">Layer 1</title><ellipse id="svg_5" cx="15.933" cy="16.029" fill="#5f00bf" stroke="null" stroke-opacity="null" stroke-width="null" rx="15.791" ry="15.825"/><path id="svg_1" fill="#fff" stroke="#fcfcfc" stroke-width="0" d="m19.2,19a5.94,5.94 0 0 0 0.8,-3l0,0a6.69,6.69 0 0 0 -0.2,-1.53a6,6 0 0 0 -2.8,-3.67a1,1 0 0 0 -1,1.74a3.92,3.92 0 0 1 1.85,2.46a0,0 0 0 1 0,0l-9.13,0a2,2 0 1 0 0,2l9.13,0a3.71,3.71 0 0 1 -0.39,1a3.93,3.93 0 0 1 -1.46,1.46a1,1 0 0 0 1,1.74a6.1,6.1 0 0 0 2.2,-2.2z" class="cls-1"/><path id="svg_2" fill="#fff" stroke="#fcfcfc" stroke-width="0" d="m20.75,22.4a1,1 0 0 0 -1.42,0a8.31,8.31 0 0 1 -1.83,1.4a1,1 0 0 0 1,1.74a11,11 0 0 0 2.24,-1.72a1,1 0 0 0 0.01,-1.42z" class="cls-1"/><path id="svg_3" fill="#fff" stroke="#fcfcfc" stroke-width="99" d="m17.56734,8.21a9.09,9.09 0 0 1 3.48,12a1,1 0 0 0 0.42,1.35a1,1 0 0 0 0.46,0.11a1,1 0 0 0 0.89,-0.53a11.12,11.12 0 0 0 -4.25,-14.67a1,1 0 1 0 -1,1.74z" class="cls-1"/><path id="svg_4" fill="#fff" stroke="#fcfcfc" stroke-width="0" d="m27.730979,12.12006a16.915024,15.326136 0 0 0 -7.904316,-9.378824a1.063838,0.963908 0 1 0 -1.063838,1.6772a14.71288,13.330846 0 0 1 6.904309,8.193217a14.829902,13.436876 0 0 1 -6.904309,15.171911a1.063838,0.963908 0 0 0 1.063838,1.6772a17.170345,15.557474 0 0 0 6.234091,-5.6485a16.915024,15.326136 0 0 0 1.670226,-11.692203z" class="cls-1"/></g></svg>