<svg xmlns="http://www.w3.org/2000/svg" width="150" height="150"><g><title>background</title><rect id="canvas_background" width="582" height="402" x="-1" y="-1" fill="none"/></g><g><title>Layer 1</title><ellipse id="svg_11" cx="74.369" cy="74.033" fill="#fff" stroke="#000" stroke-width="0" rx="69.601" ry="69.285"/><path id="svg_2" fill="#fbbc04" d="m69,75c0,-5.8 0,-11.6 0,-17.3c0,-3.3 2.1,-5.6 5.3,-6c3.1,-0.4 6.3,2.1 6.5,5.2c0,0.3 0,0.6 0,0.9c0,11.5 0,23 0,34.5c0,3.2 -2,5.6 -5,6.1c-3.5,0.6 -6.8,-2.1 -6.9,-5.7c-0.1,-4.8 0,-9.7 0,-14.5c0.1,-1.1 0.1,-2.1 0.1,-3.2z" class="st3"/><path id="svg_3" fill="#34a853" d="m90.3,87.3c0,-3.6 0,-7.1 0,-10.7c0,-3 2.3,-5.5 5.1,-5.8c3.2,-0.4 5.9,1.5 6.6,4.5c0.1,0.4 0.2,0.9 0.2,1.3c0,7.2 0,14.4 0,21.5c0,3 -2.3,5.5 -5.2,5.8c-3.2,0.3 -5.9,-1.5 -6.6,-4.5c-0.1,-0.6 -0.2,-1.2 -0.2,-1.8c0.1,-3.5 0.1,-6.9 0.1,-10.3c0,0 0,0 0,0z" class="st4"/><path id="svg_4" fill="#e53935" d="m59.7,62.8c0,3.6 0,7.1 0,10.7c0,3 -2.3,5.5 -5.2,5.8c-3.1,0.3 -5.9,-1.5 -6.6,-4.5c-0.1,-0.5 -0.2,-0.9 -0.2,-1.4c0,-7.1 0,-14.1 0,-21.2c0,-4.3 4.3,-7.2 8.2,-5.5c2.3,1 3.7,2.8 3.7,5.4c0.2,3.5 0.1,7.1 0.1,10.7z" class="st7"/><path id="svg_5" fill="#1a73e8" d="m39,75c0,1.4 0.2,2.8 0,4.2c-0.4,3.1 -3.1,5.2 -6.4,5.1c-3,-0.2 -5.4,-2.6 -5.5,-5.8c-0.1,-2.3 -0.1,-4.6 0,-6.9c0.2,-3.4 2.9,-5.9 6.3,-5.7c3.2,0.1 5.7,2.8 5.7,6.1c0,0.9 0,1.9 -0.1,3c0,0 0,0 0,0z" class="st0"/><path id="svg_6" fill="#4285f4" d="m110.9,75c0,-1.1 0,-2.1 0,-3.2c0,-3.4 2.6,-6 5.8,-6.1c3.4,-0.1 6.1,2.5 6.2,5.9c0.1,2.2 0.1,4.5 0,6.7c-0.1,3.4 -2.8,5.9 -6.2,5.8c-3.2,-0.1 -5.7,-2.7 -5.8,-6c0,-1 0,-2 0,-3.1z" class="st2"/><path id="svg_7" fill="#34a853" d="m102.2,55.5c0,1.1 0,2.2 0,3.4c-0.1,3.3 -2.7,5.8 -6,5.8c-3.2,0 -5.8,-2.5 -5.9,-5.8c-0.1,-2.3 -0.1,-4.6 0,-6.9c0.1,-3.3 2.7,-5.7 5.9,-5.8c3.3,0 5.9,2.5 6,5.7c0,1.2 0,2.4 0,3.6c0,0 0,0 0,0z" class="st4"/><path id="svg_8" fill="#e53935" d="m59.7,94.5c0,1.2 0,2.3 0,3.5c-0.1,3.3 -2.7,5.8 -5.9,5.9c-3.3,0 -5.9,-2.5 -6,-5.8c0,-2.3 0,-4.6 0,-6.8c0.1,-3.3 2.7,-5.8 6,-5.8c3.2,0 5.8,2.5 5.9,5.8c0.1,1 0,2.1 0,3.2z" class="st7"/><path id="svg_9" fill="#fbbc04" d="m81,36.3c0,1.1 0,2.2 0,3.4c-0.1,3.3 -2.7,5.9 -5.9,5.9c-3.2,0 -5.9,-2.6 -6,-5.8c0,-2.3 0,-4.6 0,-6.8c0.1,-3.3 2.8,-5.9 6,-5.9c3.2,0 5.8,2.6 5.9,5.8c0,1.1 0,2.3 0,3.4z" class="st3"/><path id="svg_10" fill="#fbbc04" d="m69,113.6c0,-1.1 0,-2.2 0,-3.3c0.1,-3.4 2.7,-6 6,-5.9c3.2,0 5.9,2.6 5.9,5.9c0,2.2 0,4.5 0,6.7c-0.1,3.3 -2.7,5.9 -5.9,5.9c-3.2,0 -5.9,-2.6 -6,-6c0,-1 0,-2.2 0,-3.3z" class="st3"/></g></svg>