<svg id="Layer_2" data-name="Layer 2" xmlns="http://www.w3.org/2000/svg" viewBox="0 0 824.09 823.12"><defs><style>.cls-1{fill:#f26329;}.cls-2{fill:#00b9e8;}.cls-3{fill:#fff;}</style></defs><path class="cls-1" d="M308.57,580.23c5,16.69,12.43,40.77,22.47,69.45,24.1,68.81,36.15,103.22,51.07,125.62,46.35,69.61,152.1,94,232.85,84.76,16.41-1.87,124.69-16.07,193-112.34,14.8-20.85,57.82-83.49,48-169.53C845.79,489,785.75,435.59,763,417.85c-64.61-50.48-134.19-52.25-167.49-53.11s-108.06-1.66-179.74,50.05c-71.19,51.35-95.14,122.71-102.13,147.06l-138.89,2c.52-4.65,1.34-11.07,2.57-18.68,0,0,5.73-35.21,17.85-69.15C226,389.85,297.34,320.83,297.34,320.83c24.5-23.7,92.48-87.75,203.23-110.3,93.12-19,167,1.49,197.11,10.21,92.46,26.77,150.21,77,163.41,88.86,100.08,89.83,123.29,202.57,128.68,233.87,4.65,27,15.38,105.72-15.32,199.15-37.07,112.77-111.21,176.12-130.73,192-113.42,92.25-240.26,92.46-278.81,90.89-101-4.12-172.64-44.08-196.08-58.21-104.14-62.81-149-154-163.4-186.9C159.72,675.58,171,581.67,177.36,545.21l158.11-7.53Z" transform="translate(-171.33 -202.73)"/><path class="cls-2" d="M418.33,543.72a155,155,0,0,0-8.14,20.68c-19.37,62,6.57,117.58,11.41,127.49a181.05,181.05,0,0,0,40.17,53.79c14.77,13.59,51.61,42.93,106.89,47.66a180.12,180.12,0,0,0,96.68-19.06c11.45-5.86,56.85-30.63,81.7-85.45a184.3,184.3,0,0,0,15.66-82.38c-1-23.08-6.13-33.76-10.55-54.47-5.5-25.73-9.15-63.14.34-112.34l65.36,24.17a97.06,97.06,0,0,1,49.36,51.06c18.3,41.78,17.12,92.55,16,112.34-.93,16.55-2.6,43-12.93,76.26a301.8,301.8,0,0,1-40.85,82.38,307.18,307.18,0,0,1-83.07,80.68,299,299,0,0,1-116.42,44.94c-14.29,2.19-77.38,10.76-151.49-17-22.9-8.59-83.74-32.3-132.77-95.32-8.12-10.44-49.34-64.92-59.23-147.41a300.21,300.21,0,0,1,8.85-116.93,290.51,290.51,0,0,1,32.34-73L410,493.09Z" transform="translate(-171.33 -202.73)"/><path class="cls-3" d="M410.19,564.4A198.67,198.67,0,0,1,430.62,521c18.58-29.59,39.86-46.08,44.42-49.53a180.69,180.69,0,0,1,47.49-25.53,183.07,183.07,0,0,1,72-10.73A179.71,179.71,0,0,1,751.3,550.62a68.28,68.28,0,0,1,3.57-28.6c1.79-5,10.17-28.7,34.73-38.3,19.83-7.75,37.68-1.42,42.89.51,22.06,8.2,32.22,25.95,34.72,30.64a295.38,295.38,0,0,0-46.47-85.78A302,302,0,0,0,631.3,317.77a306.21,306.21,0,0,0-199.15,38.29,317.88,317.88,0,0,0-60.77,47.49c-12.86,12.77-33.56,33.64-51.57,66.9a260.89,260.89,0,0,0-24.51,64.34,69.88,69.88,0,0,1,21.8-28.3c5.27-4,15.65-11.75,30.79-13.06,22.93-2,39.45,12.2,42.9,15.31C414,529.78,410.6,561.18,410.19,564.4Z" transform="translate(-171.33 -202.73)"/></svg>